<?xml version="1.0" standalone="no"?>
<!DOCTYPE svg PUBLIC "-//W3C//DTD SVG 20010904//EN"
 "http://www.w3.org/TR/2001/REC-SVG-20010904/DTD/svg10.dtd">
<svg version="1.0" xmlns="http://www.w3.org/2000/svg"
 width="81.000000pt" height="60.000000pt" viewBox="0 0 81.000000 60.000000"
 preserveAspectRatio="xMidYMid meet">

<g transform="translate(0.000000,60.000000) scale(0.100000,-0.100000)"
fill="#000000" stroke="none">
<path d="M311 582 c-63 -10 -98 -63 -87 -135 10 -65 123 -277 148 -277 11 0 4
226 -9 321 -12 80 -21 95 -52 91z"/>
<path d="M95 443 c-49 -73 -29 -137 62 -199 71 -49 173 -107 179 -101 13 12
-186 337 -206 337 -5 0 -21 -17 -35 -37z"/>
<path d="M648 462 c-33 -38 -137 -201 -168 -261 -26 -52 -28 -62 -14 -57 44
17 180 105 215 138 33 32 39 45 39 78 0 42 -18 88 -43 108 -11 9 -17 8 -29 -6z"/>
<path d="M410 288 c0 -57 4 -109 8 -115 5 -8 25 17 59 75 69 120 72 129 31
128 -18 0 -48 3 -65 8 l-33 8 0 -104z"/>
<path d="M14 266 c-9 -36 12 -88 47 -122 29 -28 33 -29 147 -32 85 -2 113 0
102 8 -15 11 -155 93 -242 143 l-47 28 -7 -25z"/>
<path d="M648 220 c-64 -37 -131 -77 -150 -89 l-33 -22 117 3 c108 3 118 5
143 28 15 14 33 37 41 52 15 29 19 84 7 91 -5 2 -60 -26 -125 -63z"/>
<path d="M148 83 c-32 -2 -58 -8 -58 -13 0 -16 61 -60 83 -60 24 0 87 31 126
61 l24 19 -59 -2 c-33 -1 -85 -3 -116 -5z"/>
<path d="M484 81 c12 -19 109 -71 134 -71 12 0 39 16 60 35 l37 34 -50 1 c-27
0 -81 3 -119 7 -52 5 -67 3 -62 -6z"/>
</g>
</svg>
